# xmcd
#
# Track frame offsets:
#	150
#	22232
#	43448
#	59782
#	77180
#	96032
#	119190
#	142559
#	165161
#	185424
#	201299
#	217220
#
# Disc length: 3156 seconds
#
# Revision: 0
# Processed by: cddbd v1.5.2PL0 Copyright (c) Steve Scherf et al.
# Submitted via: EasyCDDAExtractor 16.0.9.1
#
DISCID=b80c520c
DTITLE=Various Artist - Mộng Chiều Xuân
DYEAR=2011
DGENRE=Pop
TTITLE0=Ngọc Hạ - Thư Xuân Hải Ngoại
TTITLE1=Quang Dũng - Mùa Xuân Trên Đỉnh Bình Yên
TTITLE2=Thanh Hà - Mộng Chiều Xuân
TTITLE3=Trần Thái Hòa - Nụ Cười Sơn Cước
TTITLE4=Quỳnh Vi and Nguyệt Anh - Nụ Xuân
TTITLE5=Tuấn Ngọc - Mùa Xuân Sao Chưa Về Hỡi Em?
TTITLE6=Khánh Hà - Em Đã Thấy Mùa Xuân Chưa?
TTITLE7=Khánh Ly - Em Đến Thăm Anh Đêm 30
TTITLE8=Tú Quyên, Hương Giang, Diễm Sương - Quê Tôi
TTITLE9=Hồ Lệ Thu - Những Kiếp Hoa Xuân
TTITLE10=Khánh Ly - Cánh Hoa Xưa
TTITLE11=Ngọc Hạ - Nắng Có Còn Xuân
EXTD=
EXTT0=
EXTT1=
EXTT2=
EXTT3=
EXTT4=
EXTT5=
EXTT6=
EXTT7=
EXTT8=
EXTT9=
EXTT10=
EXTT11=
PLAYORDER=
